<?xml version="1.0" standalone="no"?>
<!DOCTYPE svg PUBLIC "-//W3C//DTD SVG 20010904//EN"
 "http://www.w3.org/TR/2001/REC-SVG-20010904/DTD/svg10.dtd">
<svg version="1.0" xmlns="http://www.w3.org/2000/svg"
 viewBox="350 160 820 470"
 preserveAspectRatio="xMidYMid meet">
<metadata>
Created by potrace 1.16, written by Peter Selinger 2001-2019
</metadata>
<g transform="translate(0.000000,1024.000000) scale(0.100000,-0.100000)"
fill="currentColor" stroke="none">
<path d="M10137 8516 c-6 -81 -31 -150 -68 -186 -33 -31 -115 -67 -172 -75
-57 -9 -72 -25 -22 -25 20 0 34 -4 31 -9 -4 -5 2 -7 13 -4 25 6 103 -16 96
-27 -3 -6 1 -7 9 -4 20 8 63 -39 88 -93 10 -23 21 -72 25 -109 6 -70 16 -68
28 6 26 157 82 213 238 235 26 3 47 10 47 15 0 4 -24 14 -52 21 -156 37 -212
101 -234 270 -10 74 -20 67 -27 -15z"/>
<path d="M10420 8205 c0 -2 34 -22 75 -44 137 -75 264 -217 334 -373 103 -229
101 -512 -8 -815 -48 -135 -82 -204 -94 -196 -6 3 -7 1 -3 -5 13 -21 -138
-297 -156 -285 -7 3 -8 1 -4 -6 4 -6 -21 -52 -60 -107 -50 -73 -69 -93 -76
-83 -8 11 -9 10 -4 -4 6 -20 -71 -127 -92 -127 -7 0 -11 -4 -8 -8 8 -13 -54
-83 -66 -76 -7 4 -8 2 -4 -5 8 -13 -140 -172 -156 -168 -6 1 -12 -6 -13 -17
-4 -19 -44 -53 -58 -48 -5 1 -6 -1 -3 -6 8 -13 -38 -54 -50 -45 -5 5 -6 4 -2
0 10 -13 -149 -150 -163 -141 -7 4 -9 3 -5 -4 9 -14 -150 -135 -166 -126 -6 4
-8 3 -5 -3 9 -14 -140 -116 -155 -107 -6 4 -8 3 -4 -4 13 -22 -470 -300 -501
-288 -8 3 -12 2 -9 -3 7 -10 -170 -94 -349 -166 -336 -135 -976 -320 -1071
-310 -31 3 -33 3 -9 -3 25 -6 17 -10 -57 -25 -163 -34 -304 -55 -333 -50 -20
3 -26 1 -17 -4 14 -10 -113 -31 -347 -58 -153 -18 -411 -28 -411 -16 0 5 -11
6 -25 3 -14 -2 -25 -8 -25 -13 0 -5 -43 -9 -95 -9 -52 0 -95 3 -95 8 0 4 -11
8 -25 8 -14 1 -25 -2 -25 -7 0 -5 -10 -5 -23 0 -13 5 -43 7 -68 4 -78 -9 -489
56 -497 78 -2 5 -7 7 -12 4 -23 -14 -345 109 -333 128 3 6 1 7 -5 3 -21 -13
-199 93 -185 109 5 4 3 5 -4 2 -22 -13 -173 130 -165 156 1 5 -2 6 -7 3 -22
-14 -139 199 -127 230 3 8 1 12 -4 9 -5 -3 -12 4 -15 17 -2 13 -9 43 -15 68
-15 69 -12 268 5 359 20 102 58 217 100 302 71 140 243 368 267 353 7 -4 8 -2
4 4 -9 15 59 86 73 77 7 -3 8 0 5 9 -6 16 29 40 41 28 3 -4 5 -2 4 3 -2 6 5
21 16 34 30 35 204 173 274 216 33 21 61 42 61 46 0 14 -12 11 -45 -11 -17
-11 -39 -17 -50 -14 -14 4 -16 3 -7 -4 10 -7 4 -15 -25 -33 -50 -31 -57 -34
-48 -19 5 9 4 11 -4 6 -6 -4 -9 -11 -6 -15 2 -5 -14 -21 -38 -36 -23 -15 -52
-36 -64 -47 -12 -11 -26 -17 -33 -13 -6 3 -9 2 -8 -3 2 -5 -46 -52 -107 -105
-226 -195 -385 -391 -508 -624 -106 -202 -141 -337 -140 -548 0 -132 4 -162
28 -250 15 -55 28 -108 28 -117 1 -9 4 -15 8 -12 4 2 12 -11 20 -29 38 -96
160 -249 272 -341 26 -21 44 -43 40 -49 -3 -6 -1 -7 5 -3 15 9 123 -63 115
-77 -3 -6 -1 -7 6 -3 6 4 41 -9 79 -29 235 -126 539 -215 892 -261 195 -25
686 -30 937 -10 111 10 212 19 225 21 13 2 75 11 138 20 155 22 411 70 540
102 58 14 112 26 120 28 41 8 195 49 270 72 672 200 1236 467 1678 795 51 38
98 66 104 62 6 -4 8 -3 5 3 -4 6 39 48 96 94 225 185 434 399 584 601 28 37
54 64 58 60 5 -4 6 -2 3 3 -4 6 9 33 28 60 204 296 346 622 401 916 27 146 24
434 -6 559 -13 52 -24 104 -25 115 0 11 -4 22 -7 25 -4 3 -20 38 -37 78 -48
115 -105 202 -200 303 -48 52 -92 95 -97 97 -6 2 -24 13 -42 25 -22 15 -28 24
-20 29 8 5 5 7 -8 6 -11 -1 -47 11 -80 26 -53 26 -125 49 -125 41z m466 -1456
c-9 -18 -16 -36 -16 -42 0 -5 -23 -55 -51 -111 -122 -241 -308 -484 -581 -759
-70 -71 -132 -126 -138 -122 -6 4 -9 2 -8 -4 4 -15 -163 -152 -175 -144 -6 3
-7 1 -3 -5 7 -12 -233 -194 -249 -188 -6 2 -19 -2 -30 -10 -10 -8 -14 -14 -9
-14 6 0 15 5 22 12 7 7 12 9 12 5 0 -3 -58 -45 -129 -92 -90 -60 -134 -84
-147 -79 -13 4 -15 3 -7 -3 9 -6 -25 -31 -110 -80 -146 -85 -222 -124 -231
-118 -3 3 -4 2 -1 -2 15 -19 -600 -294 -624 -278 -5 3 -11 1 -13 -5 -5 -16
-193 -79 -219 -74 -17 4 -20 3 -11 -4 11 -7 10 -10 -5 -15 -10 -3 -62 -19
-116 -35 -55 -17 -106 -28 -115 -25 -9 4 -13 2 -9 -4 9 -14 -260 -84 -293 -77
-17 4 -21 3 -12 -4 13 -8 -131 -43 -363 -86 -211 -40 -561 -77 -700 -74 -44 1
-96 -2 -115 -6 -19 -4 -30 -3 -23 1 7 5 -6 8 -33 8 -24 0 -44 -3 -44 -7 0 -3
-15 -4 -32 -2 -18 3 -71 5 -118 5 -85 1 -343 19 -337 25 1 1 81 5 177 9 341
11 482 23 850 71 307 39 761 140 1109 245 426 130 647 215 974 376 82 40 153
70 159 67 6 -4 8 -3 5 2 -3 6 42 36 101 68 367 201 859 556 1045 754 23 24 47
40 54 37 8 -2 12 -1 9 4 -6 10 77 101 93 101 6 0 10 6 9 13 -2 6 3 11 10 9 6
-1 11 2 10 7 -3 9 97 134 149 188 13 13 23 27 24 31 2 8 79 124 88 132 11 9
72 125 124 232 28 59 53 105 55 103 2 -2 -3 -18 -12 -36z"/>
<path d="M8685 8169 c-55 -5 -124 -10 -152 -11 -29 -2 -53 -6 -53 -9 0 -4 -21
-10 -47 -14 -124 -18 -403 -105 -568 -177 -135 -60 -311 -151 -442 -231 -133
-80 -357 -236 -350 -244 3 -2 28 7 56 22 29 14 57 23 63 19 7 -5 8 -2 3 6 -6
10 -4 12 9 7 9 -4 15 -3 12 2 -8 12 282 153 297 145 7 -4 9 -4 5 1 -18 19 323
153 557 219 374 104 861 113 1158 19 43 -13 75 -28 72 -33 -3 -6 1 -7 9 -4 8
3 50 -11 92 -31 58 -28 73 -39 63 -47 -10 -7 -8 -8 7 -3 40 11 277 -187 259
-215 -4 -6 -1 -9 6 -8 17 4 93 -120 125 -203 44 -117 64 -239 64 -397 1 -140
-16 -314 -29 -294 -3 6 -6 -11 -7 -36 -1 -80 -123 -430 -144 -417 -5 3 -12 0
-16 -6 -4 -8 -3 -9 4 -5 23 14 11 -17 -44 -117 -71 -129 -178 -283 -194 -279
-6 1 -9 -2 -5 -7 8 -14 -114 -153 -127 -145 -6 4 -8 3 -5 -3 8 -13 -67 -86
-78 -76 -4 5 -5 3 -2 -3 8 -14 -36 -57 -48 -47 -4 5 -5 3 -2 -3 13 -22 -243
-201 -266 -187 -6 3 -7 1 -4 -4 7 -12 -135 -80 -233 -112 -145 -46 -202 -55
-385 -55 -113 0 -163 17 -199 66 -31 43 -24 125 35 378 64 280 172 756 246
1087 31 138 60 250 65 247 4 -3 5 2 2 10 -3 9 8 75 26 148 17 73 42 183 56
243 35 149 41 170 76 242 42 89 106 156 186 195 51 25 62 34 45 36 -40 6 -361
-70 -483 -114 -39 -14 -75 -22 -82 -18 -6 4 -8 3 -5 -3 7 -12 -40 -36 -54 -27
-5 3 -8 0 -7 -8 2 -7 -5 -12 -14 -12 -10 1 -16 -2 -13 -6 3 -4 -2 -14 -11 -21
-25 -21 -69 -90 -88 -139 -10 -25 -34 -112 -53 -195 -42 -182 -143 -627 -188
-825 -18 -80 -59 -257 -90 -395 -51 -221 -58 -263 -58 -360 -1 -162 33 -272
121 -388 21 -27 36 -53 34 -59 -1 -5 1 -7 6 -4 5 3 33 -13 63 -35 104 -78 200
-113 359 -130 294 -31 723 88 1056 292 37 22 75 41 85 42 10 1 15 5 12 11 -4
5 1 7 10 3 9 -3 16 -2 14 2 -1 5 34 35 78 67 104 74 268 205 278 221 4 7 13
13 18 13 6 0 7 -5 3 -12 -4 -7 -3 -8 5 -4 6 4 9 11 7 15 -7 11 99 113 109 104
4 -5 5 -3 2 3 -8 14 26 47 38 37 4 -5 5 -3 2 3 -8 14 17 37 28 26 5 -4 5 -2 1
5 -4 7 13 36 40 70 147 179 258 417 305 652 11 53 22 162 26 244 3 81 10 147
15 147 4 0 8 8 8 18 0 14 -2 15 -9 3 -13 -20 -21 14 -24 100 -1 37 -5 65 -8
63 -4 -2 -10 13 -14 34 -21 117 -102 293 -184 403 -293 388 -833 567 -1536
508z"/>
<path d="M5769 7728 c-41 -4 -121 -18 -177 -33 -56 -14 -114 -23 -130 -20 -22
4 -24 4 -7 -4 17 -8 18 -10 3 -10 -10 -1 -18 -4 -18 -8 0 -5 33 -7 74 -5 141
6 316 -41 455 -124 77 -46 206 -168 195 -185 -4 -7 -3 -9 3 -6 15 9 92 -111
166 -260 91 -182 230 -484 230 -500 0 -7 3 -13 7 -13 13 0 42 -78 35 -91 -5
-7 -4 -10 2 -6 6 4 50 -80 103 -196 327 -709 468 -943 665 -1107 229 -189 479
-242 864 -184 99 15 240 50 254 64 5 4 -58 10 -140 13 -168 6 -232 20 -342 75
-81 40 -175 117 -164 134 3 6 1 8 -5 4 -14 -9 -74 63 -132 159 -78 130 -211
398 -205 415 3 8 3 11 -1 7 -4 -4 -85 149 -179 340 -381 772 -563 1073 -766
1268 -229 219 -469 302 -790 273z"/>
<path d="M8215 7701 c-23 -21 -239 -55 -496 -76 -234 -20 -278 -36 -135 -49
73 -6 144 -42 169 -84 31 -53 24 -118 -51 -442 -38 -168 -73 -321 -77 -340 -7
-31 -9 -32 -16 -15 -7 15 -7 11 -3 -11 3 -19 -7 -85 -25 -160 -16 -71 -48
-208 -70 -304 -37 -158 -49 -266 -29 -253 5 2 31 -43 59 -102 28 -58 55 -107
59 -110 4 -3 11 19 14 48 4 28 27 138 50 242 24 105 70 305 101 445 201 900
199 891 235 965 32 66 115 159 132 149 7 -4 8 -2 4 4 -4 7 15 26 48 48 31 20
53 40 50 45 -7 11 -8 11 -19 0z"/>
<path d="M5855 7510 c-3 -6 8 -24 25 -41 93 -94 91 -135 -46 -719 -8 -36 -26
-114 -40 -175 -13 -60 -51 -229 -84 -375 -33 -145 -60 -269 -60 -275 0 -5 -5
-3 -10 5 -8 11 -9 9 -5 -10 6 -25 -72 -401 -102 -495 -30 -93 -75 -146 -162
-190 -53 -27 -130 -47 -154 -40 -15 4 -18 3 -9 -3 18 -12 -16 -22 -75 -22 -41
0 -57 -12 -30 -23 14 -5 150 -2 312 8 121 8 678 8 755 0 30 -3 49 -2 42 1 -6
3 -10 10 -7 15 4 5 -1 6 -9 3 -18 -7 -144 29 -198 57 -47 24 -91 66 -114 110
-29 53 -23 175 15 344 18 77 47 210 66 295 18 85 57 259 85 385 117 525 160
729 160 763 0 20 -11 54 -26 79 -14 24 -22 48 -19 53 4 6 2 9 -3 8 -5 -2 -29
19 -52 45 -43 49 -156 144 -197 165 -12 7 -28 19 -37 27 -9 10 -17 11 -21 5z"/>
<path d="M5320 6575 c-7 -8 -17 -12 -23 -8 -5 3 -7 1 -4 -4 7 -11 -20 -28 -36
-24 -5 1 -6 -2 -3 -7 8 -13 -40 -55 -54 -47 -6 3 -9 1 -8 -6 2 -7 -3 -13 -9
-14 -7 0 -13 -4 -12 -8 1 -13 -52 -66 -64 -64 -6 1 -11 -4 -12 -11 0 -7 -7
-17 -15 -22 -8 -5 -11 -10 -7 -10 4 0 -30 -44 -75 -99 -146 -173 -238 -340
-289 -521 -20 -73 -23 -107 -23 -235 0 -172 12 -232 74 -360 46 -96 127 -196
215 -266 36 -29 65 -57 65 -62 0 -6 3 -7 6 -4 4 4 19 -2 33 -12 133 -94 429
-191 696 -227 138 -19 566 -27 715 -13 509 46 914 120 1260 230 112 36 128 47
66 45 -25 0 -46 -4 -46 -7 0 -16 -515 -100 -780 -128 -212 -22 -484 -33 -675
-28 -206 6 -468 32 -473 47 -2 5 -10 6 -17 4 -36 -14 -431 108 -418 129 3 6 1
7 -5 3 -15 -9 -150 58 -241 118 -76 51 -216 190 -206 206 4 6 1 9 -6 8 -18 -4
-95 152 -116 232 -19 79 -22 250 -4 335 47 227 195 493 385 692 27 29 54 49
59 46 6 -3 7 -1 3 5 -4 6 11 28 34 49 22 21 40 41 40 46 0 12 -17 8 -30 -8z"/>
</g>
</svg>
